{
    "accessors" : [
        {
            "bufferView" : 0,
            "componentType" : 5123,
            "count" : 3204,
            "max" : [
                535
            ],
            "min" : [
                0
            ],
            "type" : "SCALAR"
        },
        {
            "bufferView" : 1,
            "componentType" : 5126,
            "count" : 536,
            "max" : [
                0.43596816062927246,
                1.2263386249542236,
                -0.6366928815841675
            ],
            "min" : [
                -0.2791569232940674,
                0.05878806114196777,
                -0.7378014922142029
            ],
            "type" : "VEC3"
        },
        {
            "bufferView" : 2,
            "componentType" : 5126,
            "count" : 536,
            "max" : [
                0.8029724955558777,
                0.8128910064697266,
                1.0
            ],
            "min" : [
                -0.7459944486618042,
                -0.7271339893341064,
                -1.0
            ],
            "type" : "VEC3"
        },
        {
            "bufferView" : 3,
            "componentType" : 5123,
            "count" : 536,
            "max" : [
                0,
                7,
                19,
                20
            ],
            "min" : [
                0,
                0,
                0,
                0
            ],
            "type" : "VEC4"
        },
        {
            "bufferView" : 4,
            "componentType" : 5126,
            "count" : 536,
            "max" : [
                0.0,
                1.0,
                1.0,
                1.0
            ],
            "min" : [
                0.0,
                0.0,
                0.0,
                0.0
            ],
            "type" : "VEC4"
        },
        {
            "bufferView" : 5,
            "componentType" : 5123,
            "count" : 536,
            "max" : [
                20,
                20,
                19,
                16
            ],
            "min" : [
                0,
                0,
                0,
                0
            ],
            "type" : "VEC4"
        },
        {
            "bufferView" : 6,
            "componentType" : 5126,
            "count" : 536,
            "max" : [
                1.0,
                1.0,
                1.0,
                1.0
            ],
            "min" : [
                0.0,
                0.0,
                0.0,
                0.0
            ],
            "type" : "VEC4"
        },
        {
            "bufferView" : 7,
            "componentType" : 5123,
            "count" : 536,
            "max" : [
                11,
                0,
                0,
                0
            ],
            "min" : [
                0,
                0,
                0,
                0
            ],
            "type" : "VEC4"
        },
        {
            "bufferView" : 8,
            "componentType" : 5126,
            "count" : 536,
            "max" : [
                1.0,
                0.0,
                0.0,
                0.0
            ],
            "min" : [
                0.0,
                0.0,
                0.0,
                0.0
            ],
            "type" : "VEC4"
        },
        {
            "bufferView" : 9,
            "componentType" : 5126,
            "count" : 21,
            "max" : [
                4.335333347320557,
                3.0655441284179688,
                4.317793846130371,
                0.0,
                4.3462463850119093e-07,
                4.335333347320557,
                3.0655441284179688,
                0.0,
                10.38943099975586,
                1.4752674815099454e-06,
                10.389430046081543,
                0.0,
                7.142683506011963,
                -0.3387812376022339,
                7.1426825523376465,
                1.0
            ],
            "min" : [
                -9.886326552077662e-06,
                -1.3609905242919922,
                -4.328272342681885,
                0.0,
                -4.067986481004482e-07,
                3.0655436515808105,
                0.0,
                0.0,
                -10.38943099975586,
                -1.1206524419549169e-07,
                -2.3646893168915994e-05,
                0.0,
                -7.142683506011963,
                -4.821767807006836,
                -1.1804052591323853,
                1.0
            ],
            "type" : "MAT4"
        }
    ],
    "asset" : {
        "generator" : "Khronos Blender glTF 2.0 exporter",
        "version" : "2.0"
    },
    "bufferViews" : [
        {
            "buffer" : 0,
            "byteLength" : 6408,
            "byteOffset" : 0,
            "target" : 34963
        },
        {
            "buffer" : 0,
            "byteLength" : 6432,
            "byteOffset" : 6408,
            "target" : 34962
        },
        {
            "buffer" : 0,
            "byteLength" : 6432,
            "byteOffset" : 12840,
            "target" : 34962
        },
        {
            "buffer" : 0,
            "byteLength" : 4288,
            "byteOffset" : 19272,
            "target" : 34962
        },
        {
            "buffer" : 0,
            "byteLength" : 8576,
            "byteOffset" : 23560,
            "target" : 34962
        },
        {
            "buffer" : 0,
            "byteLength" : 4288,
            "byteOffset" : 32136,
            "target" : 34962
        },
        {
            "buffer" : 0,
            "byteLength" : 8576,
            "byteOffset" : 36424,
            "target" : 34962
        },
        {
            "buffer" : 0,
            "byteLength" : 4288,
            "byteOffset" : 45000,
            "target" : 34962
        },
        {
            "buffer" : 0,
            "byteLength" : 8576,
            "byteOffset" : 49288,
            "target" : 34962
        },
        {
            "buffer" : 0,
            "byteLength" : 1344,
            "byteOffset" : 57864
        }
    ],
    "buffers" : [
        {
            "byteLength" : 59208,
            "uri" : "Hand.bin"
        }
    ],
    "meshes" : [
        {
            "name" : "Cube.001",
            "primitives" : [
                {
                    "attributes" : {
                        "JOINTS_0" : 3,
                        "JOINTS_1" : 5,
                        "JOINTS_2" : 7,
                        "NORMAL" : 2,
                        "POSITION" : 1,
                        "WEIGHTS_0" : 4,
                        "WEIGHTS_1" : 6,
                        "WEIGHTS_2" : 8
                    },
                    "indices" : 0
                }
            ]
        }
    ],
    "nodes" : [
        {
            "name" : "Armature",
            "scale" : [
                0.2306627780199051,
                0.2306627780199051,
                0.2306627780199051
            ],
            "translation" : [
                -0.027737975120544434,
                0.07114605605602264,
                -0.506502091884613
            ]
        },
        {
            "children" : [
                2,
                4
            ],
            "name" : "Armature.001",
            "translation" : [
                -0.13342416286468506,
                0.3387812376022339,
                2.4846653938293457
            ]
        },
        {
            "mesh" : 0,
            "name" : "Cube.001",
            "scale" : [
                4.335333347320557,
                4.335333347320557,
                10.389430046081543
            ],
            "skin" : 0,
            "translation" : [
                0.13342416286468506,
                -0.3387812376022339,
                7.1426825523376465
            ]
        },
        {
            "children" : [
                0
            ],
            "name" : "Hand.gltf"
        },
        {
            "children" : [
                5,
                9,
                13,
                14,
                18,
                22
            ],
            "name" : "Armature.001_Base"
        },
        {
            "children" : [
                6
            ],
            "name" : "Armature.001_Pinky.1",
            "rotation" : [
                -0.11242087185382843,
                0.6981130242347717,
                0.11242089420557022,
                0.6981126666069031
            ],
            "translation" : [
                0.0,
                1.0,
                0.0
            ]
        },
        {
            "children" : [
                7
            ],
            "name" : "Armature.001_Pinky.2",
            "rotation" : [
                0.007664100732654333,
                -1.1600771010478184e-08,
                8.245136129403363e-09,
                0.9999706745147705
            ],
            "translation" : [
                7.105427357601002e-15,
                1.8390579223632812,
                -1.127986593019159e-13
            ]
        },
        {
            "children" : [
                8
            ],
            "name" : "Armature.001_Pinky.3",
            "rotation" : [
                0.06461931765079498,
                2.401910705884802e-07,
                4.908569195549717e-08,
                0.9979100823402405
            ],
            "scale" : [
                1.0,
                1.0000001192092896,
                1.0000001192092896
            ],
            "translation" : [
                -2.842170943040401e-14,
                0.7526605129241943,
                5.960448845598876e-08
            ]
        },
        {
            "name" : "Armature.001_Pinky.4",
            "rotation" : [
                0.027618136256933212,
                1.074066702244636e-07,
                3.059414765971269e-08,
                0.9996185898780823
            ],
            "scale" : [
                1.0,
                0.9999998807907104,
                0.9999998807907104
            ],
            "translation" : [
                -1.4210854715202004e-13,
                0.4861633777618408,
                2.980194580004536e-08
            ]
        },
        {
            "children" : [
                10
            ],
            "name" : "Armature.001_Ring.1",
            "rotation" : [
                -0.03180266171693802,
                0.7063918709754944,
                0.0318027026951313,
                0.7063906788825989
            ],
            "scale" : [
                0.9999999403953552,
                0.9999999403953552,
                1.0
            ],
            "translation" : [
                0.0,
                1.0,
                0.0
            ]
        },
        {
            "children" : [
                11
            ],
            "name" : "Armature.001_Ring.2",
            "rotation" : [
                -0.02854434959590435,
                -4.794488290826848e-07,
                -3.551459926143252e-08,
                0.9995925426483154
            ],
            "scale" : [
                1.0,
                0.9999999403953552,
                1.0
            ],
            "translation" : [
                -1.5987211554602254e-14,
                1.8804261684417725,
                -4.3057224452525134e-13
            ]
        },
        {
            "children" : [
                12
            ],
            "name" : "Armature.001_Ring.3",
            "rotation" : [
                0.0072633675299584866,
                2.2266139865223522e-07,
                7.1330372719558e-09,
                0.9999736547470093
            ],
            "translation" : [
                -3.907985046680551e-14,
                0.768691897392273,
                2.980205948688308e-08
            ]
        },
        {
            "name" : "Armature.001_Ring.4",
            "rotation" : [
                5.109555090143658e-08,
                0.9955084323883057,
                0.09467415511608124,
                1.736592935230874e-06
            ],
            "scale" : [
                1.0,
                0.9999998807907104,
                0.9999999403953552
            ],
            "translation" : [
                -2.1316282072803006e-14,
                0.6392684578895569,
                -2.9802844636606096e-08
            ]
        },
        {
            "name" : "Armature.001_Bone.004",
            "rotation" : [
                -0.1084829643368721,
                0.6987358927726746,
                0.10848298668861389,
                0.6987354159355164
            ],
            "scale" : [
                1.0000001192092896,
                1.000000238418579,
                1.0
            ],
            "translation" : [
                0.0,
                1.0,
                0.0
            ]
        },
        {
            "children" : [
                15
            ],
            "name" : "Armature.001_Middle.1",
            "rotation" : [
                -0.03734103962779045,
                -0.7061206102371216,
                -0.03734108433127403,
                0.7061196565628052
            ],
            "scale" : [
                0.9999999403953552,
                0.9999998211860657,
                0.9999999403953552
            ],
            "translation" : [
                0.0,
                1.0,
                0.0
            ]
        },
        {
            "children" : [
                16
            ],
            "name" : "Armature.001_Middle.2",
            "rotation" : [
                -0.028407957404851913,
                2.370235847592994e-07,
                3.220857536234689e-08,
                0.9995964169502258
            ],
            "translation" : [
                1.7763568394002505e-15,
                1.8691620826721191,
                -3.3784086639343514e-13
            ]
        },
        {
            "children" : [
                17
            ],
            "name" : "Armature.001_Middle.3",
            "rotation" : [
                0.03420726954936981,
                -2.5228061417692516e-07,
                -3.90063661370732e-08,
                0.9994147419929504
            ],
            "scale" : [
                1.0,
                0.9999999403953552,
                1.0
            ],
            "translation" : [
                3.552713678800501e-14,
                0.8704276084899902,
                2.98020061961779e-08
            ]
        },
        {
            "name" : "Armature.001_Middle.4",
            "rotation" : [
                -0.07972175627946854,
                4.1693445496093773e-07,
                7.768542076291851e-08,
                0.9968171715736389
            ],
            "scale" : [
                1.0,
                0.9999999403953552,
                0.9999999403953552
            ],
            "translation" : [
                -2.6645352591003757e-14,
                0.7496247291564941,
                -3.0734288003486654e-08
            ]
        },
        {
            "children" : [
                19
            ],
            "name" : "Armature.001_Pointer.1",
            "rotation" : [
                -0.12156540900468826,
                -0.696578860282898,
                -0.12156544625759125,
                0.6965785622596741
            ],
            "scale" : [
                1.0,
                0.9999997615814209,
                0.9999999403953552
            ],
            "translation" : [
                0.0,
                1.0,
                0.0
            ]
        },
        {
            "children" : [
                20
            ],
            "name" : "Armature.001_Pointer.2",
            "rotation" : [
                0.011902251280844212,
                -9.127006705966778e-09,
                -8.767868209247354e-09,
                0.9999291896820068
            ],
            "translation" : [
                2.3092638912203256e-14,
                1.8707525730133057,
                -2.980241120553728e-08
            ]
        },
        {
            "children" : [
                21
            ],
            "name" : "Armature.001_Pointer.3",
            "rotation" : [
                0.05151791870594025,
                -2.4495950157188418e-08,
                -2.4083906424721135e-08,
                0.9986720681190491
            ],
            "scale" : [
                1.0,
                1.0,
                1.0000001192092896
            ],
            "translation" : [
                1.4210854715202004e-14,
                0.9351116418838501,
                -2.9802464496242465e-08
            ]
        },
        {
            "name" : "Armature.001_Pointer.4",
            "rotation" : [
                -0.03837653994560242,
                4.6667103958952794e-08,
                1.7089506698653167e-08,
                0.999263346195221
            ],
            "scale" : [
                1.0,
                0.9999999403953552,
                1.0
            ],
            "translation" : [
                -2.842170943040401e-14,
                0.7789415121078491,
                2.9802112777588263e-08
            ]
        },
        {
            "children" : [
                23
            ],
            "name" : "Armature.001_Thumb.1",
            "rotation" : [
                -0.2586085796356201,
                -0.6581198573112488,
                -0.25860854983329773,
                0.6581196784973145
            ],
            "scale" : [
                1.0,
                0.9999998807907104,
                0.9999999403953552
            ],
            "translation" : [
                0.0,
                1.0,
                0.0
            ]
        },
        {
            "children" : [
                24
            ],
            "name" : "Armature.001_Thumb.2",
            "rotation" : [
                0.04797276109457016,
                1.3373501417390798e-07,
                -1.4133630266144337e-08,
                0.9988486766815186
            ],
            "scale" : [
                1.0,
                0.9999998807907104,
                0.9999998807907104
            ],
            "translation" : [
                0.0,
                1.6340429782867432,
                2.3841853646899835e-07
            ]
        },
        {
            "name" : "Armature.001_Thumb.3",
            "rotation" : [
                -0.06622721999883652,
                -2.8982915623032568e-08,
                6.342084191146569e-09,
                0.997804582118988
            ],
            "translation" : [
                -4.973799150320701e-14,
                0.6027078032493591,
                2.4424906541753444e-15
            ]
        }
    ],
    "scene" : 0,
    "scenes" : [
        {
            "name" : "Scene",
            "nodes" : [
                1,
                3
            ]
        }
    ],
    "skins" : [
        {
            "inverseBindMatrices" : 9,
            "joints" : [
                4,
                5,
                6,
                7,
                8,
                9,
                10,
                11,
                12,
                13,
                14,
                15,
                16,
                17,
                18,
                19,
                20,
                21,
                22,
                23,
                24
            ],
            "skeleton" : 1
        }
    ]
}
